<svg width="55" height="21" viewBox="0 0 55 21" fill="none" xmlns="http://www.w3.org/2000/svg">
<path d="M11.5276 6.65H13.3976C14.451 6.65 15.151 6.82667 15.4976 7.18C15.8443 7.53333 16.0176 7.96 16.0176 8.46C16.0176 8.79333 15.9443 9.11 15.7976 9.41C15.651 9.70333 15.4176 9.92333 15.0976 10.07C15.571 10.19 15.9176 10.4 16.1376 10.7C16.3643 11 16.4776 11.3533 16.4776 11.76C16.4776 12.1867 16.411 12.56 16.2776 12.88C16.1443 13.2 15.8676 13.4667 15.4476 13.68C15.0276 13.8933 14.421 14 13.6276 14H11.5276V6.65ZM13.5776 9.77C14.051 9.77 14.3876 9.65667 14.5876 9.43C14.7876 9.19667 14.8876 8.90333 14.8876 8.55C14.8876 7.91667 14.4343 7.6 13.5276 7.6H12.6276V9.77H13.5776ZM13.7776 13.06C14.3843 13.06 14.791 12.94 14.9976 12.7C15.211 12.4533 15.3176 12.1433 15.3176 11.77C15.3176 11.4167 15.1976 11.1433 14.9576 10.95C14.7176 10.7567 14.3543 10.66 13.8676 10.66H12.6276V13.06H13.7776ZM20.6244 5.904L24.5184 14H23.0994L22.4064 12.416H18.6994L18.0064 14H16.6314L20.5034 5.904H20.6244ZM20.0744 9.347L19.1944 11.305H21.9224L21.0534 9.358L20.5804 8.247H20.5584L20.0744 9.347ZM28.6297 6.332H24.7777V5.18H30.7417L26.3857 12.824H30.5617V14H24.2137L28.6297 6.332ZM34.6556 5.904L38.5496 14H37.1306L36.4376 12.416H32.7306L32.0376 14H30.6626L34.5346 5.904H34.6556ZM34.1056 9.347L33.2256 11.305H35.9536L35.0846 9.358L34.6116 8.247H34.5896L34.1056 9.347ZM42.5989 14L41.1189 11.22C40.8122 11.2333 40.5389 11.24 40.2989 11.24H40.0189V14H38.9289V6.65H40.5989C41.4455 6.65 42.1422 6.82667 42.6889 7.18C43.2355 7.52667 43.5089 8.09333 43.5089 8.88C43.5089 9.37333 43.3922 9.8 43.1589 10.16C42.9322 10.5133 42.5922 10.7867 42.1389 10.98L43.8889 14H42.5989ZM40.7289 10.33C41.3822 10.33 41.8289 10.19 42.0689 9.91C42.3155 9.62333 42.4389 9.28333 42.4389 8.89C42.4389 8.01667 41.8555 7.58 40.6889 7.58H40.0189V10.33H40.7289Z" fill="white"/>
<path fill-rule="evenodd" clip-rule="evenodd" d="M36.9786 15C35.2934 18.5474 31.6777 21 27.4891 21C23.3005 21 19.6847 18.5474 17.9995 15H21.4885C22.8568 16.8217 25.0353 18 27.4891 18C29.9428 18 32.1213 16.8217 33.4896 15H36.9786ZM36.4351 5C34.5867 1.99992 31.2714 0 27.4891 0C23.7067 0 20.3914 1.99992 18.5431 5H22.39C23.7281 3.75883 25.52 3 27.4891 3C29.4581 3 31.25 3.75883 32.5881 5H36.4351Z" fill="#D9D9D9" fill-opacity="0.333333"/>
</svg>
